<svg width="4815" height="1562" viewBox="0 0 4815 1562" fill="none" xmlns="http://www.w3.org/2000/svg">
<path d="M200.797 413.656H382.438L296.109 180.844L200.797 413.656ZM192.984 433.578C179.703 475.505 169.807 508.578 163.297 532.797C157.047 556.755 153.01 576.286 151.188 591.391C183.219 594.776 204.182 597.901 214.078 600.766C223.974 603.63 228.922 607.406 228.922 612.094C228.922 614.958 227.88 617.172 225.797 618.734C223.714 620.557 220.719 621.469 216.812 621.469C213.688 621.469 200.797 620.297 178.141 617.953C155.745 615.609 134.781 614.438 115.25 614.438C94.9375 614.438 73.4531 615.609 50.7969 617.953C28.1406 620.297 15.5104 621.469 12.9062 621.469C9 621.469 5.875 620.557 3.53125 618.734C1.1875 617.172 0.015625 614.958 0.015625 612.094C0.015625 607.406 5.09375 603.63 15.25 600.766C25.1458 597.901 46.2396 594.776 78.5312 591.391C95.1979 563.266 112.125 532.536 129.312 499.203C146.5 465.609 164.208 428.76 182.438 388.656L257.828 223.031C269.026 198.812 279.443 174.464 289.078 149.984C298.974 125.505 307.958 101.677 316.031 78.5C318.896 70.1667 321.76 59.8802 324.625 47.6406C328.271 31.7552 332.958 23.8125 338.688 23.8125C343.115 23.8125 346.5 31.3646 348.844 46.4688C349.365 48.5521 349.625 50.1146 349.625 51.1562C353.01 69.125 360.302 95.2969 371.5 129.672C382.698 163.786 396.76 202.719 413.688 246.469L500.797 467.172C506.266 480.193 513.688 497.641 523.062 519.516C532.698 541.391 543.245 565.349 554.703 591.391C589.339 595.557 610.693 598.943 618.766 601.547C627.099 604.151 631.266 607.667 631.266 612.094C631.266 614.958 630.094 617.172 627.75 618.734C625.406 620.557 622.411 621.469 618.766 621.469C617.464 621.469 604.052 620.297 578.531 617.953C553.01 615.609 527.75 614.438 502.75 614.438C469.677 614.438 434.391 616.26 396.891 619.906C386.734 620.948 380.354 621.469 377.75 621.469C373.844 621.469 370.719 620.557 368.375 618.734C366.031 617.172 364.859 614.958 364.859 612.094C364.859 607.406 369.807 603.63 379.703 600.766C389.599 597.901 410.562 594.776 442.594 591.391C438.688 572.901 432.438 550.635 423.844 524.594C415.25 498.292 404.182 467.953 390.641 433.578H192.984ZM878.766 235.922C878.766 205.714 878.245 177.589 877.203 151.547C876.422 125.505 874.99 101.156 872.906 78.5C841.135 75.1146 820.302 71.9896 810.406 69.125C800.51 66 795.562 62.0938 795.562 57.4062C795.562 54.8021 796.734 52.5885 799.078 50.7656C801.682 48.9427 805.068 48.0312 809.234 48.0312C812.099 48.0312 824.469 49.2031 846.344 51.5469C868.219 53.8906 888.531 55.0625 907.281 55.0625C925.51 55.0625 952.724 53.7604 988.922 51.1562C1025.12 48.5521 1052.07 47.25 1069.78 47.25C1141.4 47.25 1195.69 59.2292 1232.67 83.1875C1269.65 107.146 1288.14 142.302 1288.14 188.656C1288.14 231.885 1270.95 268.344 1236.58 298.031C1202.2 327.719 1155.46 346.208 1096.34 353.5L1207.28 509.75C1230.2 541.521 1246.99 561.703 1257.67 570.297C1268.61 578.891 1279.55 583.188 1290.48 583.188C1296.47 583.188 1302.85 582.016 1309.62 579.672C1316.4 577.328 1320.43 576.156 1321.73 576.156C1324.08 576.156 1326.03 576.938 1327.59 578.5C1329.16 580.062 1329.94 582.146 1329.94 584.75C1329.94 592.302 1320.43 601.938 1301.42 613.656C1282.41 625.375 1263.92 631.234 1245.95 631.234C1205.33 631.234 1160.02 595.818 1110.02 524.984C1108.45 522.641 1107.41 521.078 1106.89 520.297L995.562 360.922C992.958 357.276 991.005 354.281 989.703 351.938C988.661 349.333 988.141 346.99 988.141 344.906C988.141 341 989.182 338.135 991.266 336.312C993.609 334.49 996.865 333.578 1001.03 333.578C1001.81 333.578 1006.76 333.969 1015.88 334.75C1025.25 335.531 1034.23 335.922 1042.83 335.922C1097.52 335.922 1137.23 326.938 1161.97 308.969C1186.97 290.74 1199.47 261.833 1199.47 222.25C1199.47 180.062 1184.36 144.255 1154.16 114.828C1124.21 85.1406 1087.36 70.2969 1043.61 70.2969C1033.19 70.2969 1022.39 71.0781 1011.19 72.6406C1000.25 73.9427 988.922 75.8958 977.203 78.5C975.12 100.896 973.557 125.115 972.516 151.156C971.734 177.198 971.344 205.453 971.344 235.922V433.578C971.344 464.307 971.734 492.693 972.516 518.734C973.557 544.776 975.12 568.865 977.203 591C1010.02 595.167 1031.11 598.682 1040.48 601.547C1049.86 604.411 1054.55 608.188 1054.55 612.875C1054.55 615.479 1053.24 617.562 1050.64 619.125C1048.3 620.688 1045.17 621.469 1041.27 621.469C1038.92 621.469 1033.58 621.078 1025.25 620.297C990.615 616.911 957.281 615.219 925.25 615.219C892.438 615.219 858.844 616.911 824.469 620.297C816.396 621.078 811.318 621.469 809.234 621.469C805.068 621.469 801.682 620.688 799.078 619.125C796.734 617.562 795.562 615.479 795.562 612.875C795.562 607.927 800.901 603.891 811.578 600.766C822.255 597.641 842.698 594.516 872.906 591.391C874.99 568.474 876.422 543.995 877.203 517.953C878.245 491.911 878.766 463.786 878.766 433.578V235.922ZM2011.42 78.5L2019.62 39.0469C2019.89 37.7448 2020.28 35.6615 2020.8 32.7969C2024.7 13.0052 2029 3.10938 2033.69 3.10938C2036.29 3.10938 2038.24 4.15104 2039.55 6.23438C2041.11 8.05729 2041.89 10.7917 2041.89 14.4375C2041.89 15.4792 2041.37 19.6458 2040.33 26.9375C2030.69 87.6146 2025.88 154.151 2025.88 226.547C2025.88 229.411 2026.01 233.708 2026.27 239.438C2026.53 244.906 2026.66 249.073 2026.66 251.938C2026.66 256.625 2026.01 260.271 2024.7 262.875C2023.4 265.219 2021.71 266.391 2019.62 266.391C2016.5 266.391 2014.16 265.349 2012.59 263.266C2011.29 260.922 2010.12 256.104 2009.08 248.812L2002.83 187.094C1983.3 145.427 1958.69 113.266 1929 90.6094C1899.31 67.9531 1866.76 56.625 1831.34 56.625C1771.71 56.625 1723.53 81.8854 1686.81 132.406C1650.35 182.667 1632.12 249.724 1632.12 333.578C1632.12 410.661 1651.14 473.422 1689.16 521.859C1727.44 570.297 1776.53 594.516 1836.42 594.516C1863.24 594.516 1890.2 589.047 1917.28 578.109C1944.62 567.172 1969.36 551.807 1991.5 532.016C1997.23 526.807 2004.39 519.516 2012.98 510.141C2021.58 500.766 2027.7 496.078 2031.34 496.078C2033.43 496.078 2035.12 496.599 2036.42 497.641C2037.72 498.682 2038.51 500.245 2038.77 502.328C2038.77 505.453 2035.77 511.443 2029.78 520.297C2023.79 529.151 2016.37 537.875 2007.52 546.469C1976.27 576.417 1944.1 598.031 1911.03 611.312C1877.96 624.594 1839.42 631.234 1795.41 631.234C1715.98 631.234 1651.27 605.193 1601.27 553.109C1551.53 501.026 1526.66 433.188 1526.66 349.594C1526.66 306.365 1533.04 266.911 1545.8 231.234C1558.82 195.297 1577.83 163.786 1602.83 136.703C1631.99 104.672 1666.11 80.3229 1705.17 63.6562C1744.23 46.7292 1786.29 38.2656 1831.34 38.2656C1859.73 38.2656 1888.51 41.5208 1917.67 48.0312C1947.1 54.5417 1978.35 64.6979 2011.42 78.5ZM2445.25 433.578C2445.25 464.307 2445.64 492.693 2446.42 518.734C2447.46 544.776 2449.03 568.865 2451.11 591C2486.01 595.427 2507.62 598.943 2515.95 601.547C2524.29 604.151 2528.45 607.667 2528.45 612.094C2528.45 614.958 2527.15 617.172 2524.55 618.734C2522.2 620.557 2519.08 621.469 2515.17 621.469C2512.83 621.469 2507.49 621.078 2499.16 620.297C2464.52 616.911 2431.19 615.219 2399.16 615.219C2366.34 615.219 2332.75 616.911 2298.38 620.297C2290.3 621.078 2285.22 621.469 2283.14 621.469C2278.97 621.469 2275.59 620.557 2272.98 618.734C2270.64 617.172 2269.47 614.958 2269.47 612.094C2269.47 607.406 2274.42 603.63 2284.31 600.766C2294.21 597.901 2315.04 594.776 2346.81 591.391C2348.9 568.474 2350.33 543.995 2351.11 517.953C2352.15 491.911 2352.67 463.786 2352.67 433.578V235.141C2352.67 204.932 2352.15 176.938 2351.11 151.156C2350.33 125.375 2348.9 101.156 2346.81 78.5C2316.6 75.1146 2296.16 71.8594 2285.48 68.7344C2274.81 65.6094 2269.47 61.5729 2269.47 56.625C2269.47 54.0208 2270.64 51.8073 2272.98 49.9844C2275.59 48.1615 2278.97 47.25 2283.14 47.25C2285.22 47.25 2290.17 47.6406 2297.98 48.4219C2332.62 52.3281 2366.34 54.2812 2399.16 54.2812C2431.19 54.2812 2464.65 52.3281 2499.55 48.4219C2507.62 47.6406 2512.83 47.25 2515.17 47.25C2519.08 47.25 2522.2 48.1615 2524.55 49.9844C2527.15 51.8073 2528.45 54.0208 2528.45 56.625C2528.45 61.5729 2523.11 65.6094 2512.44 68.7344C2501.76 71.8594 2481.32 75.1146 2451.11 78.5C2449.03 100.896 2447.46 124.984 2446.42 150.766C2445.64 176.547 2445.25 204.672 2445.25 235.141V325.766H2721.42V235.141C2721.42 204.932 2720.9 176.938 2719.86 151.156C2719.08 125.375 2717.65 101.156 2715.56 78.5C2685.35 75.1146 2664.91 71.8594 2654.23 68.7344C2643.56 65.6094 2638.22 61.5729 2638.22 56.625C2638.22 53.7604 2639.39 51.5469 2641.73 49.9844C2644.08 48.1615 2647.2 47.25 2651.11 47.25C2653.19 47.25 2658.27 47.6406 2666.34 48.4219C2701.5 52.3281 2735.35 54.2812 2767.91 54.2812C2799.94 54.2812 2833.4 52.3281 2868.3 48.4219C2876.63 47.6406 2881.84 47.25 2883.92 47.25C2887.83 47.25 2890.82 48.1615 2892.91 49.9844C2895.25 51.5469 2896.42 53.7604 2896.42 56.625C2896.42 61.5729 2891.08 65.6094 2880.41 68.7344C2869.99 71.8594 2849.81 75.1146 2819.86 78.5C2817.78 103.76 2816.08 129.411 2814.78 155.453C2813.74 181.495 2813.22 208.057 2813.22 235.141V433.578C2813.22 460.922 2813.74 487.745 2814.78 514.047C2816.08 540.349 2817.78 566.13 2819.86 591.391C2854.49 595.557 2875.85 598.943 2883.92 601.547C2892.26 604.151 2896.42 607.667 2896.42 612.094C2896.42 614.958 2895.25 617.172 2892.91 618.734C2890.82 620.557 2887.83 621.469 2883.92 621.469C2881.84 621.469 2876.5 621.078 2867.91 620.297C2833.27 616.911 2799.94 615.219 2767.91 615.219C2735.35 615.219 2701.63 616.911 2666.73 620.297C2658.4 621.078 2653.19 621.469 2651.11 621.469C2647.2 621.469 2644.08 620.557 2641.73 618.734C2639.39 617.172 2638.22 614.958 2638.22 612.094C2638.22 607.406 2643.17 603.63 2653.06 600.766C2662.96 597.901 2683.92 594.646 2715.95 591C2717.78 568.344 2719.08 543.995 2719.86 517.953C2720.9 491.911 2721.42 463.786 2721.42 433.578V345.688H2445.25V433.578ZM3200.17 235.141C3200.17 204.932 3199.65 176.938 3198.61 151.156C3197.83 125.375 3196.4 101.156 3194.31 78.5C3164.1 75.1146 3143.66 71.8594 3132.98 68.7344C3122.31 65.6094 3116.97 61.5729 3116.97 56.625C3116.97 54.0208 3118.14 51.8073 3120.48 49.9844C3123.09 48.1615 3126.47 47.25 3130.64 47.25C3132.72 47.25 3137.67 47.6406 3145.48 48.4219C3180.12 52.3281 3213.84 54.2812 3246.66 54.2812C3278.69 54.2812 3312.15 52.3281 3347.05 48.4219C3355.12 47.6406 3360.33 47.25 3362.67 47.25C3366.58 47.25 3369.7 48.1615 3372.05 49.9844C3374.65 51.8073 3375.95 54.0208 3375.95 56.625C3375.95 61.5729 3370.61 65.6094 3359.94 68.7344C3349.26 71.8594 3328.82 75.1146 3298.61 78.5C3296.53 100.896 3294.96 124.984 3293.92 150.766C3293.14 176.547 3292.75 204.672 3292.75 235.141V433.578C3292.75 464.307 3293.14 492.693 3293.92 518.734C3294.96 544.776 3296.53 568.865 3298.61 591C3333.51 595.427 3355.12 598.943 3363.45 601.547C3371.79 604.151 3375.95 607.667 3375.95 612.094C3375.95 614.958 3374.65 617.172 3372.05 618.734C3369.7 620.557 3366.58 621.469 3362.67 621.469C3360.33 621.469 3354.99 621.078 3346.66 620.297C3312.02 616.911 3278.69 615.219 3246.66 615.219C3213.84 615.219 3180.25 616.911 3145.88 620.297C3137.8 621.078 3132.72 621.469 3130.64 621.469C3126.47 621.469 3123.09 620.557 3120.48 618.734C3118.14 617.172 3116.97 614.958 3116.97 612.094C3116.97 607.406 3121.92 603.63 3131.81 600.766C3141.71 597.901 3162.54 594.776 3194.31 591.391C3196.4 568.474 3197.83 543.995 3198.61 517.953C3199.65 491.911 3200.17 463.786 3200.17 433.578V235.141ZM3879.7 615.219C3877.1 622.25 3874.36 627.198 3871.5 630.062C3868.9 632.927 3865.77 634.359 3862.12 634.359C3856.4 634.359 3851.06 628.76 3846.11 617.562C3845.33 615.74 3844.81 614.438 3844.55 613.656L3617.2 78.5C3586.99 75.1146 3566.55 71.8594 3555.88 68.7344C3544.94 65.6094 3539.47 61.5729 3539.47 56.625C3539.47 54.0208 3540.77 51.8073 3543.38 49.9844C3545.98 48.1615 3549.23 47.25 3553.14 47.25C3555.22 47.25 3560.56 47.7708 3569.16 48.8125C3603.79 52.4583 3637.12 54.2812 3669.16 54.2812C3701.45 54.2812 3735.04 52.3281 3769.94 48.4219C3778.01 47.6406 3783.09 47.25 3785.17 47.25C3789.08 47.25 3792.2 48.1615 3794.55 49.9844C3796.89 51.5469 3798.06 53.7604 3798.06 56.625C3798.06 61.5729 3792.33 65.6094 3780.88 68.7344C3769.42 71.8594 3747.67 75.1146 3715.64 78.5L3895.72 515.219C3926.97 438.396 3954.05 363.396 3976.97 290.219C3999.89 216.781 4018.11 146.208 4031.66 78.5C4001.45 75.1146 3980.88 71.8594 3969.94 68.7344C3959.26 65.6094 3953.92 61.5729 3953.92 56.625C3953.92 54.0208 3955.22 51.8073 3957.83 49.9844C3960.43 48.1615 3963.69 47.25 3967.59 47.25C3969.68 47.25 3981.53 48.4219 4003.14 50.7656C4024.76 53.1094 4045.46 54.2812 4065.25 54.2812C4085.04 54.2812 4105.74 53.1094 4127.36 50.7656C4148.97 48.4219 4160.82 47.25 4162.91 47.25C4166.81 47.25 4169.94 48.1615 4172.28 49.9844C4174.62 51.5469 4175.8 53.7604 4175.8 56.625C4175.8 61.5729 4170.46 65.6094 4159.78 68.7344C4149.1 71.8594 4128.79 75.1146 4098.84 78.5C4082.44 111.573 4066.03 146.99 4049.62 184.75C4033.22 222.25 4016.81 261.964 4000.41 303.891L3879.7 615.219ZM4515.48 590.219C4531.89 592.562 4548.04 594.255 4563.92 595.297C4579.81 596.339 4595.04 596.859 4609.62 596.859C4641.92 596.859 4673.69 593.734 4704.94 587.484C4736.45 580.974 4766.01 571.599 4793.61 559.359L4799.47 509.359C4800.25 502.849 4801.29 498.552 4802.59 496.469C4803.9 494.125 4805.72 492.953 4808.06 492.953C4810.15 492.953 4811.58 493.995 4812.36 496.078C4813.4 497.901 4813.92 501.938 4813.92 508.188C4813.92 509.49 4813.27 517.042 4811.97 530.844C4810.93 544.646 4810.41 557.797 4810.41 570.297C4810.41 588.005 4811.06 606.495 4812.36 625.766C4813.92 645.297 4814.7 655.844 4814.7 657.406C4814.7 661.312 4814.18 664.047 4813.14 665.609C4812.1 667.172 4810.41 667.953 4808.06 667.953C4806.5 667.953 4805.07 666.911 4803.77 664.828C4802.72 663.005 4801.81 660.141 4801.03 656.234L4796.34 631.234C4779.68 626.286 4752.98 622.51 4716.27 619.906C4679.81 617.302 4636.32 616 4585.8 616H4465.88C4427.33 616 4390.88 617.562 4356.5 620.688C4351.29 621.208 4348.3 621.469 4347.52 621.469C4343.35 621.469 4339.96 620.557 4337.36 618.734C4335.02 617.172 4333.84 614.958 4333.84 612.094C4333.84 607.146 4339.18 603.109 4349.86 599.984C4360.54 596.859 4380.98 593.604 4411.19 590.219C4413.27 567.562 4414.7 543.344 4415.48 517.562C4416.53 491.781 4417.05 463.786 4417.05 433.578V235.141C4417.05 204.932 4416.53 176.938 4415.48 151.156C4414.7 125.375 4413.27 101.156 4411.19 78.5C4380.98 75.1146 4360.54 71.8594 4349.86 68.7344C4339.18 65.6094 4333.84 61.5729 4333.84 56.625C4333.84 54.0208 4335.02 51.8073 4337.36 49.9844C4339.96 48.1615 4343.35 47.25 4347.52 47.25C4348.3 47.25 4351.42 47.5104 4356.89 48.0312C4391.01 51.1562 4426.55 52.7188 4463.53 52.7188H4579.55C4630.07 52.7188 4673.56 51.4167 4710.02 48.8125C4746.47 46.2083 4773.04 42.4323 4789.7 37.4844L4794.39 12.875C4795.17 9.22917 4796.34 6.36458 4797.91 4.28125C4799.47 1.9375 4801.03 0.765625 4802.59 0.765625C4804.94 0.765625 4806.5 1.54688 4807.28 3.10938C4808.32 4.67188 4808.84 7.40625 4808.84 11.3125C4808.84 12.875 4808.06 23.4219 4806.5 42.9531C4804.94 62.224 4804.16 80.7135 4804.16 98.4219C4804.16 110.922 4804.81 124.203 4806.11 138.266C4807.41 152.068 4808.06 159.62 4808.06 160.922C4808.06 166.391 4807.67 170.297 4806.89 172.641C4806.11 174.724 4804.68 175.896 4802.59 176.156C4799.99 176.156 4797.91 174.984 4796.34 172.641C4795.04 170.036 4793.87 165.479 4792.83 158.969L4787.36 109.75C4759.76 97.25 4729.68 87.875 4697.12 81.625C4664.83 75.1146 4630.85 71.8594 4595.17 71.8594C4584.49 71.8594 4572.65 72.3802 4559.62 73.4219C4546.86 74.4635 4532.15 76.1562 4515.48 78.5C4513.4 100.896 4511.84 124.984 4510.8 150.766C4510.02 176.547 4509.62 204.672 4509.62 235.141V319.906H4535.41C4581.76 319.906 4623.95 317.953 4661.97 314.047C4699.99 310.141 4734.1 304.151 4764.31 296.078L4771.34 250.375C4772.39 244.385 4773.56 240.349 4774.86 238.266C4776.16 236.182 4777.98 235.141 4780.33 235.141C4782.41 235.141 4784.1 236.182 4785.41 238.266C4786.71 240.089 4787.36 242.823 4787.36 246.469C4787.36 247.25 4786.71 257.016 4785.41 275.766C4784.1 294.516 4783.45 312.745 4783.45 330.453C4783.45 348.161 4784.1 366.391 4785.41 385.141C4786.71 403.63 4787.36 413.396 4787.36 414.438C4787.36 417.823 4786.71 420.557 4785.41 422.641C4784.36 424.464 4782.67 425.505 4780.33 425.766C4777.72 425.505 4775.77 424.464 4774.47 422.641C4773.43 420.818 4772.39 417.042 4771.34 411.312L4764.31 364.828C4733.84 356.495 4698.56 350.245 4658.45 346.078C4618.61 341.911 4573.82 339.828 4524.08 339.828H4509.62V433.578C4509.62 464.047 4510.02 492.172 4510.8 517.953C4511.84 543.734 4513.4 567.823 4515.48 590.219ZM375.431 1200.26H363.053C354.801 1200.26 347.395 1200.58 340.836 1201.21C334.277 1201.63 328.035 1202.37 322.11 1203.43L329.41 1177.09C336.816 1178.78 344.645 1180.26 352.896 1181.53C361.36 1182.59 369.929 1183.22 378.604 1183.44L401.456 1088.54C418.806 1016.6 439.859 960.105 464.615 919.057C489.371 877.797 514.444 857.167 539.835 857.167C547.664 857.167 553.906 859.389 558.561 863.832C563.427 868.064 565.86 873.671 565.86 880.653C565.86 889.117 563.11 895.993 557.608 901.283C552.107 906.573 544.913 909.218 536.026 909.218C529.679 909.218 523.331 906.679 516.983 901.601C510.636 896.311 506.616 893.666 504.923 893.666C499.422 893.666 491.381 908.583 480.802 938.417C470.222 968.039 459.749 1006.02 449.381 1052.36L420.182 1183.44C433.089 1183.01 447.477 1182.7 463.346 1182.48C479.215 1182.06 488.736 1181.74 491.91 1181.53L483.976 1208.19C473.396 1206.29 462.394 1204.7 450.968 1203.43C439.754 1202.16 428.222 1201.1 416.373 1200.26L398.282 1283.73C378.181 1374.29 356.599 1443.16 333.536 1490.35C310.473 1537.53 286.775 1561.12 262.442 1561.12C254.614 1561.12 248.689 1559.11 244.669 1555.09C240.437 1551.28 238.321 1545.68 238.321 1538.27C238.321 1529.17 241.495 1521.56 247.843 1515.42C254.19 1509.49 262.231 1506.53 271.964 1506.53C276.196 1506.53 281.274 1507.38 287.198 1509.07C293.123 1510.76 296.931 1511.61 298.624 1511.61C305.818 1511.61 317.244 1474.9 332.901 1401.48L334.488 1394.18L375.431 1200.26ZM658.727 1277.06C661.9 1263.95 664.334 1252.2 666.026 1241.83C667.931 1231.26 668.883 1223.74 668.883 1219.3C668.883 1215.92 668.142 1213.27 666.661 1211.37C665.392 1209.25 663.593 1208.19 661.266 1208.19C656.188 1208.19 649.734 1214.22 641.905 1226.28C634.288 1238.13 629.21 1244.06 626.671 1244.06C625.401 1244.06 624.343 1243.63 623.497 1242.79C622.651 1241.73 622.228 1240.57 622.228 1239.3C622.228 1237.6 623.603 1234.43 626.354 1229.77C629.104 1224.91 633.336 1218.35 639.049 1210.1C647.089 1199.09 655.87 1190.42 665.392 1184.07C675.125 1177.72 684.117 1174.55 692.369 1174.55C699.775 1174.55 705.276 1176.67 708.873 1180.9C712.682 1184.92 714.586 1191.16 714.586 1199.62C714.586 1204.28 713.528 1211.9 711.412 1222.47C709.508 1232.84 706.863 1245.01 703.478 1258.97L665.074 1411H624.767L658.727 1277.06ZM691.1 1056.8C691.1 1048.34 694.168 1041.04 700.304 1034.9C706.44 1028.77 713.74 1025.7 722.203 1025.7C730.878 1025.7 738.284 1028.66 744.42 1034.58C750.556 1040.51 753.624 1047.7 753.624 1056.17C753.624 1065.05 750.556 1072.46 744.42 1078.38C738.495 1084.31 731.09 1087.27 722.203 1087.27C713.528 1087.27 706.122 1084.31 699.986 1078.38C694.062 1072.46 691.1 1065.26 691.1 1056.8ZM942.975 1411H902.032C905.418 1402.96 908.697 1394.28 911.871 1384.97C915.257 1375.66 918.642 1365.3 922.027 1353.87L940.436 1296.74C945.302 1280.66 949.216 1265.74 952.179 1251.99C955.141 1238.03 956.622 1227.76 956.622 1221.21C956.622 1217.18 955.882 1214.01 954.4 1211.68C952.919 1209.36 950.803 1208.19 948.053 1208.19C942.551 1208.19 935.992 1214.33 928.375 1226.6C920.758 1238.66 915.891 1244.69 913.775 1244.69C912.506 1244.69 911.236 1244.16 909.967 1243.1C908.909 1241.83 908.38 1240.57 908.38 1239.3C908.38 1236.33 914.093 1226.81 925.519 1210.73L925.836 1210.41C934.088 1199.2 942.869 1190.42 952.179 1184.07C961.7 1177.72 970.481 1174.55 978.521 1174.55C986.562 1174.55 992.169 1176.67 995.343 1180.9C998.517 1184.92 1000.1 1192.11 1000.1 1202.48C1000.1 1210.1 997.776 1223.74 993.121 1243.42C988.466 1262.89 982.118 1285.42 974.078 1311.02C1002.01 1261.94 1027.19 1226.92 1049.62 1205.97C1072.04 1185.02 1095 1174.55 1118.49 1174.55C1133.09 1174.55 1143.88 1177.62 1150.86 1183.75C1157.84 1189.68 1161.33 1199.09 1161.33 1212C1161.33 1222.37 1156.36 1241.73 1146.42 1270.08C1144.72 1274.74 1143.45 1278.33 1142.61 1280.87L1111.19 1372.6C1110.34 1375.35 1109.71 1377.78 1109.28 1379.9C1108.86 1382.01 1108.65 1383.92 1108.65 1385.61C1108.65 1388.57 1109.07 1390.79 1109.92 1392.27C1110.98 1393.76 1112.56 1394.6 1114.68 1394.81C1122.51 1394.81 1131.39 1388.78 1141.34 1376.72C1151.5 1364.45 1157.53 1358.31 1159.43 1358.31C1160.7 1358.31 1161.76 1358.95 1162.6 1360.22C1163.45 1361.28 1163.87 1362.65 1163.87 1364.34C1163.87 1366.67 1162.07 1370.38 1158.48 1375.45C1155.09 1380.32 1150.65 1385.5 1145.15 1391C1134.78 1400.53 1124.73 1407.72 1115 1412.59C1105.26 1417.67 1095.95 1420.2 1087.07 1420.2C1079.66 1420.2 1074.37 1418.41 1071.2 1414.81C1068.02 1411.21 1066.44 1405.18 1066.44 1396.72C1066.44 1387.83 1070.67 1371.22 1079.13 1346.89C1081.25 1340.54 1082.83 1335.78 1083.89 1332.61L1109.92 1256.43C1112.88 1247.55 1114.89 1240.67 1115.95 1235.8C1117.22 1230.94 1117.85 1226.92 1117.85 1223.74C1117.85 1217.61 1116.16 1212.95 1112.77 1209.78C1109.39 1206.61 1104.31 1205.02 1097.54 1205.02C1074.9 1205.02 1050.04 1222.9 1022.96 1258.66C996.083 1294.41 969.423 1345.2 942.975 1411ZM1384.33 1324.35C1423.26 1320.12 1453.73 1309.75 1475.73 1293.25C1497.95 1276.75 1509.06 1256.43 1509.06 1232.31C1509.06 1223.22 1505.67 1216.44 1498.9 1212C1492.13 1207.35 1482.08 1205.02 1468.75 1205.02C1440.82 1205.02 1419.87 1214.86 1405.91 1234.54C1392.16 1254.21 1384.96 1284.15 1384.33 1324.35ZM1386.23 1337.05C1387.29 1353.13 1393.32 1365.61 1404.32 1374.5C1415.32 1383.18 1430.35 1387.51 1449.39 1387.51C1459.97 1387.51 1470.23 1385.93 1480.18 1382.75C1490.12 1379.58 1499.11 1374.92 1507.15 1368.79C1514.98 1362.86 1522.71 1356.2 1530.32 1348.79C1537.94 1341.39 1542.28 1337.68 1543.34 1337.68C1544.82 1337.68 1546.09 1338.32 1547.14 1339.59C1548.2 1340.65 1548.73 1342.13 1548.73 1344.03C1548.73 1345.51 1546.4 1349.32 1541.75 1355.46C1537.09 1361.59 1531.38 1367.94 1524.61 1374.5C1508.95 1390.37 1492.55 1402.11 1475.42 1409.73C1458.49 1417.14 1440.19 1420.84 1420.51 1420.84C1396.18 1420.84 1376.92 1413.75 1362.75 1399.57C1348.57 1385.19 1341.48 1365.83 1341.48 1341.49C1341.48 1323.51 1345.82 1304.78 1354.49 1285.32C1363.17 1265.64 1375.44 1247.12 1391.31 1229.77C1406.76 1212.64 1423.79 1199.2 1442.41 1189.47C1461.03 1179.52 1478.27 1174.55 1494.14 1174.55C1512.76 1174.55 1527.26 1178.57 1537.62 1186.61C1547.99 1194.65 1553.17 1205.97 1553.17 1220.57C1553.17 1246.38 1537.31 1270.61 1505.57 1293.25C1474.04 1315.89 1434.26 1330.49 1386.23 1337.05ZM2088.66 1200.26H2076.29C2068.03 1200.26 2060.63 1200.58 2054.07 1201.21C2047.51 1201.63 2041.27 1202.37 2035.34 1203.43L2042.64 1177.09C2050.05 1178.78 2057.88 1180.26 2066.13 1181.53C2074.59 1182.59 2083.16 1183.22 2091.84 1183.44L2126.43 1050.14H2167.37L2132.78 1183.44H2151.82C2161.34 1183.44 2170.44 1183.33 2179.12 1183.12C2188 1182.7 2196.36 1182.17 2204.19 1181.53L2196.57 1208.19C2186.21 1206.29 2175.31 1204.7 2163.88 1203.43C2152.67 1202.16 2140.82 1201.21 2128.34 1200.58L2097.87 1326.89C2095.33 1337.05 2093.53 1345.09 2092.47 1351.01C2091.63 1356.94 2091.2 1362.02 2091.2 1366.25C2091.2 1373.23 2093 1378.52 2096.6 1382.12C2100.19 1385.72 2105.59 1387.51 2112.78 1387.51C2124.21 1387.51 2135.64 1382.65 2147.06 1372.91C2158.7 1363.18 2165.26 1358.31 2166.74 1358.31C2167.59 1358.31 2168.33 1358.74 2168.96 1359.58C2169.6 1360.43 2169.91 1361.49 2169.91 1362.76C2169.91 1371.86 2160.5 1383.6 2141.67 1397.99C2122.83 1412.38 2103.47 1419.57 2083.58 1419.57C2071.31 1419.57 2061.79 1416.82 2055.02 1411.32C2048.46 1405.82 2045.18 1398.09 2045.18 1388.15C2045.18 1383.71 2045.71 1378.42 2046.77 1372.28C2047.83 1365.93 2049.62 1357.79 2052.16 1347.84L2088.66 1200.26ZM2383.7 1324.35C2422.63 1320.12 2453.1 1309.75 2475.11 1293.25C2497.33 1276.75 2508.43 1256.43 2508.43 1232.31C2508.43 1223.22 2505.05 1216.44 2498.28 1212C2491.51 1207.35 2481.46 1205.02 2468.13 1205.02C2440.2 1205.02 2419.25 1214.86 2405.28 1234.54C2391.53 1254.21 2384.34 1284.15 2383.7 1324.35ZM2385.61 1337.05C2386.66 1353.13 2392.69 1365.61 2403.7 1374.5C2414.7 1383.18 2429.72 1387.51 2448.77 1387.51C2459.35 1387.51 2469.61 1385.93 2479.55 1382.75C2489.5 1379.58 2498.49 1374.92 2506.53 1368.79C2514.36 1362.86 2522.08 1356.2 2529.7 1348.79C2537.32 1341.39 2541.65 1337.68 2542.71 1337.68C2544.19 1337.68 2545.46 1338.32 2546.52 1339.59C2547.58 1340.65 2548.11 1342.13 2548.11 1344.03C2548.11 1345.51 2545.78 1349.32 2541.12 1355.46C2536.47 1361.59 2530.76 1367.94 2523.99 1374.5C2508.33 1390.37 2491.93 1402.11 2474.79 1409.73C2457.86 1417.14 2439.56 1420.84 2419.88 1420.84C2395.55 1420.84 2376.3 1413.75 2362.12 1399.57C2347.94 1385.19 2340.86 1365.83 2340.86 1341.49C2340.86 1323.51 2345.19 1304.78 2353.87 1285.32C2362.54 1265.64 2374.82 1247.12 2390.68 1229.77C2406.13 1212.64 2423.16 1199.2 2441.78 1189.47C2460.4 1179.52 2477.65 1174.55 2493.52 1174.55C2512.14 1174.55 2526.63 1178.57 2537 1186.61C2547.37 1194.65 2552.55 1205.97 2552.55 1220.57C2552.55 1246.38 2536.68 1270.61 2504.94 1293.25C2473.42 1315.89 2433.64 1330.49 2385.61 1337.05ZM2838.7 1268.5L2852.98 1244.69C2868.01 1220.36 2881.87 1202.69 2894.56 1191.69C2907.47 1180.69 2920.27 1175.18 2932.96 1175.18C2943.12 1175.18 2950.63 1177.3 2955.5 1181.53C2960.58 1185.76 2963.12 1192.22 2963.12 1200.89C2963.12 1208.51 2960.37 1214.75 2954.86 1219.62C2949.36 1224.48 2942.27 1226.92 2933.6 1226.92C2925.35 1226.92 2917.62 1224.7 2910.43 1220.25C2903.24 1215.6 2899.53 1213.27 2899.32 1213.27C2895.3 1213.27 2889.59 1217.08 2882.18 1224.7C2874.99 1232.1 2867.9 1241.73 2860.92 1253.58L2844.1 1281.51L2866.63 1333.56C2876.36 1355.99 2883.24 1370.06 2887.26 1375.77C2891.49 1381.48 2895.73 1384.34 2899.96 1384.34C2905.04 1384.34 2911.07 1380.11 2918.05 1371.64C2925.03 1363.18 2929.79 1358.95 2932.33 1358.95C2933.6 1359.16 2934.55 1359.69 2935.19 1360.54C2935.82 1361.17 2936.24 1362.12 2936.46 1363.39C2936.46 1365.09 2935.08 1368.15 2932.33 1372.6C2929.79 1376.83 2925.67 1382.65 2919.95 1390.05C2913.39 1399.36 2906.62 1406.66 2899.64 1411.95C2892.66 1417.45 2886.52 1420.2 2881.23 1420.2C2872.77 1420.2 2865.47 1416.5 2859.33 1409.1C2853.2 1401.69 2845.05 1385.4 2834.89 1360.22L2819.98 1322.45L2803.16 1350.7C2788.98 1373.97 2775.33 1391.43 2762.21 1403.07C2749.09 1414.49 2736.29 1420.2 2723.81 1420.2C2713.65 1420.2 2706.14 1417.98 2701.28 1413.54C2696.41 1409.1 2693.98 1402.43 2693.98 1393.54C2693.98 1385.72 2696.83 1379.16 2702.54 1373.87C2708.05 1368.36 2714.92 1365.61 2723.17 1365.61C2732.06 1365.61 2741.69 1369.63 2752.06 1377.67C2755.02 1380 2756.82 1381.17 2757.45 1381.17C2761.68 1381.17 2767.29 1377.46 2774.27 1370.06C2781.47 1362.65 2788.66 1352.92 2795.86 1340.86L2814.26 1310.39L2793.95 1261.51C2785.91 1241.83 2779.46 1228.5 2774.59 1221.52C2769.94 1214.33 2765.39 1210.73 2760.94 1210.73C2755.65 1210.73 2749.52 1214.96 2742.54 1223.43C2735.76 1231.89 2731.22 1236.12 2728.89 1236.12C2727.62 1236.12 2726.56 1235.7 2725.71 1234.85C2724.87 1234.01 2724.44 1232.95 2724.44 1231.68C2724.44 1230.41 2725.82 1227.34 2728.57 1222.47C2731.32 1217.61 2734.92 1212.21 2739.36 1206.29C2746.77 1196.13 2753.96 1188.41 2760.94 1183.12C2767.93 1177.83 2774.17 1175.18 2779.67 1175.18C2788.34 1175.18 2795.96 1179.31 2802.52 1187.56C2809.29 1195.81 2817.01 1211.58 2825.69 1234.85L2838.7 1268.5ZM3179.44 1200.26H3167.07C3158.81 1200.26 3151.41 1200.58 3144.85 1201.21C3138.29 1201.63 3132.05 1202.37 3126.12 1203.43L3133.42 1177.09C3140.83 1178.78 3148.66 1180.26 3156.91 1181.53C3165.37 1182.59 3173.94 1183.22 3182.62 1183.44L3217.21 1050.14H3258.16L3223.56 1183.44H3242.6C3252.12 1183.44 3261.22 1183.33 3269.9 1183.12C3278.79 1182.7 3287.14 1182.17 3294.97 1181.53L3287.35 1208.19C3276.99 1206.29 3266.09 1204.7 3254.66 1203.43C3243.45 1202.16 3231.6 1201.21 3219.12 1200.58L3188.65 1326.89C3186.11 1337.05 3184.31 1345.09 3183.25 1351.01C3182.41 1356.94 3181.98 1362.02 3181.98 1366.25C3181.98 1373.23 3183.78 1378.52 3187.38 1382.12C3190.98 1385.72 3196.37 1387.51 3203.57 1387.51C3214.99 1387.51 3226.42 1382.65 3237.84 1372.91C3249.48 1363.18 3256.04 1358.31 3257.52 1358.31C3258.37 1358.31 3259.11 1358.74 3259.74 1359.58C3260.38 1360.43 3260.69 1361.49 3260.69 1362.76C3260.69 1371.86 3251.28 1383.6 3232.45 1397.99C3213.62 1412.38 3194.26 1419.57 3174.37 1419.57C3162.09 1419.57 3152.57 1416.82 3145.8 1411.32C3139.24 1405.82 3135.96 1398.09 3135.96 1388.15C3135.96 1383.71 3136.49 1378.42 3137.55 1372.28C3138.61 1365.93 3140.41 1357.79 3142.95 1347.84L3179.44 1200.26ZM3487.5 1277.06C3490.67 1263.95 3493.1 1252.2 3494.8 1241.83C3496.7 1231.26 3497.65 1223.74 3497.65 1219.3C3497.65 1215.92 3496.91 1213.27 3495.43 1211.37C3494.16 1209.25 3492.36 1208.19 3490.04 1208.19C3484.96 1208.19 3478.5 1214.22 3470.67 1226.28C3463.06 1238.13 3457.98 1244.06 3455.44 1244.06C3454.17 1244.06 3453.11 1243.63 3452.27 1242.79C3451.42 1241.73 3451 1240.57 3451 1239.3C3451 1237.6 3452.37 1234.43 3455.12 1229.77C3457.87 1224.91 3462.11 1218.35 3467.82 1210.1C3475.86 1199.09 3484.64 1190.42 3494.16 1184.07C3503.89 1177.72 3512.89 1174.55 3521.14 1174.55C3528.54 1174.55 3534.05 1176.67 3537.64 1180.9C3541.45 1184.92 3543.36 1191.16 3543.36 1199.62C3543.36 1204.28 3542.3 1211.9 3540.18 1222.47C3538.28 1232.84 3535.63 1245.01 3532.25 1258.97L3493.84 1411H3453.54L3487.5 1277.06ZM3519.87 1056.8C3519.87 1048.34 3522.94 1041.04 3529.07 1034.9C3535.21 1028.77 3542.51 1025.7 3550.97 1025.7C3559.65 1025.7 3567.05 1028.66 3573.19 1034.58C3579.33 1040.51 3582.39 1047.7 3582.39 1056.17C3582.39 1065.05 3579.33 1072.46 3573.19 1078.38C3567.26 1084.31 3559.86 1087.27 3550.97 1087.27C3542.3 1087.27 3534.89 1084.31 3528.76 1078.38C3522.83 1072.46 3519.87 1065.26 3519.87 1056.8ZM3753.34 1411H3713.98L3833.95 932.069C3835.01 927.414 3835.75 923.394 3836.17 920.009C3836.6 916.623 3836.81 913.45 3836.81 910.487C3836.81 906.044 3835.96 902.447 3834.27 899.696C3832.79 896.946 3830.78 895.57 3828.24 895.57C3822.53 895.57 3815.44 902.447 3806.97 916.2C3798.72 929.742 3793.43 936.513 3791.1 936.513C3789.62 936.513 3788.46 936.09 3787.61 935.243C3786.98 934.185 3786.66 932.704 3786.66 930.8C3786.66 928.049 3788.57 922.971 3792.37 915.565C3796.18 908.16 3801.15 900.225 3807.29 891.762C3816.6 879.278 3824.75 870.497 3831.73 865.419C3838.92 860.341 3846.43 857.802 3854.26 857.802C3863.36 857.802 3870.13 860.447 3874.58 865.736C3879.23 870.814 3881.56 878.326 3881.56 888.271C3881.56 892.925 3880.92 898.956 3879.65 906.361C3878.38 913.767 3876.37 922.971 3873.62 933.974L3753.34 1411ZM4007.43 1324.35C4046.36 1320.12 4076.83 1309.75 4098.84 1293.25C4121.06 1276.75 4132.16 1256.43 4132.16 1232.31C4132.16 1223.22 4128.78 1216.44 4122.01 1212C4115.24 1207.35 4105.19 1205.02 4091.86 1205.02C4063.93 1205.02 4042.98 1214.86 4029.01 1234.54C4015.26 1254.21 4008.07 1284.15 4007.43 1324.35ZM4009.34 1337.05C4010.39 1353.13 4016.43 1365.61 4027.43 1374.5C4038.43 1383.18 4053.45 1387.51 4072.5 1387.51C4083.08 1387.51 4093.34 1385.93 4103.28 1382.75C4113.23 1379.58 4122.22 1374.92 4130.26 1368.79C4138.09 1362.86 4145.81 1356.2 4153.43 1348.79C4161.05 1341.39 4165.38 1337.68 4166.44 1337.68C4167.92 1337.68 4169.19 1338.32 4170.25 1339.59C4171.31 1340.65 4171.84 1342.13 4171.84 1344.03C4171.84 1345.51 4169.51 1349.32 4164.85 1355.46C4160.2 1361.59 4154.49 1367.94 4147.72 1374.5C4132.06 1390.37 4115.66 1402.11 4098.52 1409.73C4081.59 1417.14 4063.29 1420.84 4043.61 1420.84C4019.28 1420.84 4000.03 1413.75 3985.85 1399.57C3971.67 1385.19 3964.59 1365.83 3964.59 1341.49C3964.59 1323.51 3968.92 1304.78 3977.6 1285.32C3986.27 1265.64 3998.55 1247.12 4014.42 1229.77C4029.86 1212.64 4046.89 1199.2 4065.51 1189.47C4084.13 1179.52 4101.38 1174.55 4117.25 1174.55C4135.87 1174.55 4150.36 1178.57 4160.73 1186.61C4171.1 1194.65 4176.28 1205.97 4176.28 1220.57C4176.28 1246.38 4160.41 1270.61 4128.67 1293.25C4097.15 1315.89 4057.37 1330.49 4009.34 1337.05ZM4361.19 1357.04C4375.58 1368.89 4390.7 1377.89 4406.57 1384.02C4422.65 1389.95 4439.16 1392.91 4456.08 1392.91C4470.9 1392.91 4482.53 1389.74 4491 1383.39C4499.67 1376.83 4504.01 1368.05 4504.01 1357.04C4504.01 1343.08 4487.51 1330.17 4454.5 1318.32C4450.48 1316.84 4447.3 1315.68 4444.98 1314.83C4442.65 1313.99 4439.26 1312.72 4434.82 1311.02C4393.56 1296.42 4372.93 1279.5 4372.93 1260.24C4372.93 1252.2 4375.05 1243.85 4379.28 1235.17C4383.72 1226.28 4390.07 1217.71 4398.32 1209.46C4410.59 1196.77 4423.08 1187.77 4435.77 1182.48C4448.68 1177.19 4464.13 1174.55 4482.11 1174.55C4493.54 1174.55 4504.33 1175.93 4514.48 1178.68C4524.64 1181.21 4534.16 1185.24 4543.05 1190.74L4549.71 1179.63C4551.19 1177.3 4552.46 1175.71 4553.52 1174.87C4554.58 1174.02 4555.64 1173.6 4556.7 1173.6C4557.96 1173.81 4558.92 1174.34 4559.55 1175.18C4560.19 1175.82 4560.61 1176.88 4560.82 1178.36C4560.82 1179.63 4558.49 1186.5 4553.84 1198.99C4549.18 1211.26 4545.38 1223.22 4542.41 1234.85C4540.93 1240.78 4539.45 1248.08 4537.97 1256.75C4536.49 1266.27 4534.06 1271.14 4530.67 1271.35C4529.19 1271.14 4528.13 1270.4 4527.5 1269.13C4527.07 1267.65 4526.86 1264.26 4526.86 1258.97L4527.5 1232.95C4521.78 1224.48 4512.58 1217.82 4499.88 1212.95C4487.4 1208.09 4473.01 1205.65 4456.72 1205.65C4438.95 1205.65 4424.88 1208.4 4414.51 1213.91C4404.14 1219.19 4398.96 1226.39 4398.96 1235.49C4398.96 1246.91 4415.67 1258.44 4449.1 1270.08C4455.24 1272.2 4459.89 1273.89 4463.07 1275.16C4492.06 1285.95 4510.57 1295.26 4518.61 1303.09C4526.65 1310.92 4530.67 1321.29 4530.67 1334.19C4530.67 1357.26 4519.56 1377.36 4497.34 1394.5C4475.13 1411.63 4448.36 1420.2 4417.05 1420.2C4404.14 1420.2 4391.87 1418.72 4380.23 1415.76C4368.59 1412.8 4357.27 1408.14 4346.27 1401.8L4336.43 1418.3C4335.37 1420.2 4334.32 1421.47 4333.26 1422.11C4332.2 1422.95 4330.93 1423.38 4329.45 1423.38C4328.18 1423.38 4327.23 1422.95 4326.59 1422.11C4325.75 1421.26 4325.32 1420.2 4325.32 1418.93C4325.32 1416.82 4327.54 1409.73 4331.99 1397.67C4336.43 1385.61 4340.13 1374.71 4343.1 1364.98C4345.64 1355.88 4348.28 1344.88 4351.03 1331.97C4353.99 1317.58 4357.17 1310.39 4360.55 1310.39C4362.25 1310.39 4363.41 1310.81 4364.04 1311.66C4364.68 1312.51 4365 1314.2 4365 1316.74C4365 1318.22 4364.89 1320.12 4364.68 1322.45C4364.47 1324.57 4364.36 1325.94 4364.36 1326.58L4361.19 1357.04Z" fill="black"/>
</svg>
